<svg width="100" height="100" viewBox="0 0 100 100" fill="none" xmlns="http://www.w3.org/2000/svg">
<g clip-path="url(#clip0_786_9386)">
<circle cx="50" cy="50" r="50" fill="#EBF2FF"/>
<path d="M26.6 70.0811V73.4013C26.6 74.0909 26.8739 74.7522 27.3615 75.2398C27.8491 75.7274 28.5104 76.0013 29.2 76.0013H31.8C32.4896 76.0013 33.1509 75.7274 33.6385 75.2398C34.1261 74.7522 34.4 74.0909 34.4 73.4013V70.8013H65.6V73.4013C65.6 74.0909 65.8739 74.7522 66.3615 75.2398C66.8491 75.7274 67.5104 76.0013 68.2 76.0013H70.8C71.4896 76.0013 72.1509 75.7274 72.6385 75.2398C73.1261 74.7522 73.4 74.0909 73.4 73.4013V70.0811C74.1888 69.6288 74.8445 68.9765 75.3009 68.19C75.7574 67.4036 75.9985 66.5107 76 65.6013V57.8013C76 55.6407 74.6818 53.7921 72.8072 53.0043L69.2504 42.3339C68.7344 40.7804 67.742 39.429 66.4141 38.4717C65.0862 37.5144 63.4904 36.9999 61.8534 37.0013H38.1466C36.5096 36.9999 34.9138 37.5144 33.5859 38.4717C32.258 39.429 31.2656 40.7804 30.7496 42.3339L27.1928 53.0043C26.2472 53.4004 25.4397 54.067 24.8716 54.9204C24.3036 55.7739 24.0003 56.7761 24 57.8013V65.6013C24 67.5201 25.0504 69.1789 26.6 70.0811ZM33.1 65.6013C32.5877 65.6012 32.0804 65.5001 31.6071 65.3039C31.1339 65.1077 30.7039 64.8202 30.3417 64.4578C29.6104 63.7259 29.1997 62.7334 29.2 61.6987C29.2003 60.6641 29.6117 59.6719 30.3436 58.9405C31.0755 58.2091 32.0679 57.7984 33.1026 57.7987C34.1373 57.7991 35.1295 58.2105 35.8609 58.9423C36.5922 59.6742 37.0029 60.6667 37.0026 61.7013C37.0023 62.736 36.5909 63.7282 35.859 64.4596C35.1271 65.191 34.1347 65.6017 33.1 65.6013ZM66.9 65.6013C65.8653 65.601 64.8731 65.1896 64.1417 64.4578C63.4104 63.7259 62.9997 62.7334 63 61.6987C63.0003 60.6641 63.4117 59.6719 64.1436 58.9405C64.8755 58.2091 65.8679 57.7984 66.9026 57.7987C67.9373 57.7991 68.9295 58.2105 69.6609 58.9423C70.3922 59.6742 70.8029 60.6667 70.8026 61.7013C70.8023 62.736 70.3909 63.7282 69.659 64.4596C68.9271 65.191 67.9347 65.6017 66.9 65.6013ZM38.1466 42.2013H61.8508C62.3967 42.2012 62.9288 42.3729 63.3717 42.6921C63.8145 43.0113 64.1457 43.4618 64.3182 43.9797L67.1938 52.6013H32.8062L35.6792 43.9797C36.0354 42.9163 37.0286 42.2013 38.1466 42.2013Z" fill="#073BA1"/>
<path d="M76 38.0101V32.5267L50.8216 24.1339C50.2652 23.9477 49.6619 23.9559 49.1108 24.1573L24 33.2885V38.8213L50.039 29.3521L76 38.0101Z" fill="#073BA1"/>
</g>
<defs>
<clipPath id="clip0_786_9386">
<rect width="100" height="100" fill="white"/>
</clipPath>
</defs>
</svg>
