<svg width="206" height="40" viewBox="0 0 206 40" fill="none" xmlns="http://www.w3.org/2000/svg">
<g filter="url(#filter0_d_4668_8856)">
<g clip-path="url(#clip0_4668_8856)">
<rect x="5" y="4" width="60" height="30" rx="4" fill="white"/>
<rect x="5" y="4" width="60" height="30" rx="5" fill="white"/>
<path d="M32.0663 25.798H28.502L30.7313 12.2456H34.2954L32.0663 25.798Z" fill="#00579F"/>
<path d="M44.9869 12.577C44.2838 12.3028 43.1688 12 41.79 12C38.2701 12 35.7914 13.8453 35.7762 16.4836C35.747 18.4301 37.5509 19.5113 38.9 20.1603C40.279 20.8235 40.7478 21.2564 40.7478 21.8475C40.7338 22.7554 39.6335 23.1739 38.6073 23.1739C37.1843 23.1739 36.4218 22.9582 35.263 22.4531L34.7937 22.2365L34.2949 25.2787C35.1309 25.6532 36.6711 25.9854 38.2701 26C42.01 26 44.4448 24.1832 44.4737 21.3717C44.4879 19.829 43.5354 18.6468 41.4818 17.6809C40.2352 17.0608 39.4717 16.6427 39.4717 16.0082C39.4863 15.4314 40.1175 14.8406 41.5247 14.8406C42.6834 14.8117 43.5348 15.0855 44.1798 15.3595L44.5021 15.5035L44.9869 12.577Z" fill="#00579F"/>
<path d="M49.7255 20.9969C50.019 20.2183 51.1485 17.205 51.1485 17.205C51.1337 17.2339 51.4415 16.4121 51.6175 15.9075L51.8666 17.0753C51.8666 17.0753 52.5416 20.3193 52.6881 20.9969C52.1311 20.9969 50.4295 20.9969 49.7255 20.9969ZM54.1252 12.2456H51.3682C50.518 12.2456 49.8721 12.4905 49.5053 13.3701L44.2109 25.7978H47.9509C47.9509 25.7978 48.5666 24.1251 48.6989 23.7649C49.1092 23.7649 52.7474 23.7649 53.2752 23.7649C53.3775 24.2407 53.7005 25.7978 53.7005 25.7978H57.0007L54.1252 12.2456Z" fill="#00579F"/>
<path d="M25.5246 12.2456L22.0339 21.487L21.6525 19.6128C21.0072 17.4501 18.9832 15.1004 16.7246 13.9321L19.9219 25.7836H23.6911L29.2935 12.2456H25.5246Z" fill="#00579F"/>
<path d="M18.7933 12.2456H13.0587L13 12.5194C17.4734 13.6441 20.436 16.355 21.6532 19.6133L20.4066 13.3848C20.2013 12.5192 19.5706 12.2742 18.7933 12.2456Z" fill="#FAA61A"/>
</g>
<rect x="4.5" y="3.5" width="61" height="31" rx="4.5" stroke="#E8EEF3"/>
</g>
<g filter="url(#filter1_d_4668_8856)">
<g clip-path="url(#clip1_4668_8856)">
<rect x="73" y="4" width="60" height="30" rx="4" fill="white"/>
<rect x="73" y="4" width="60" height="30" rx="5" fill="white"/>
<path d="M94.0758 29.9518V28.4918C94.0758 27.9333 93.7396 27.5676 93.1623 27.5676C92.8737 27.5676 92.5598 27.664 92.344 27.9815C92.1759 27.715 91.9349 27.5676 91.5734 27.5676C91.3324 27.5676 91.0914 27.6413 90.9009 27.9078V27.6158H90.3965V29.9518H90.9009V28.6619C90.9009 28.248 91.1167 28.0524 91.4529 28.0524C91.7892 28.0524 91.9573 28.2707 91.9573 28.6619V29.9518H92.4617V28.6619C92.4617 28.248 92.7027 28.0524 93.0138 28.0524C93.35 28.0524 93.5182 28.2707 93.5182 28.6619V29.9518H94.0758ZM101.558 27.6158H100.74V26.9098H100.235V27.6158H99.7784V28.0779H100.235V29.1495C100.235 29.6853 100.451 30 101.028 30C101.244 30 101.485 29.9263 101.653 29.8299L101.507 29.3905C101.362 29.4869 101.194 29.5124 101.073 29.5124C100.832 29.5124 100.737 29.365 100.737 29.124V28.0779H101.555V27.6158H101.558ZM105.84 27.5647C105.551 27.5647 105.358 27.7121 105.237 27.9049V27.6129H104.733V29.949H105.237V28.6335C105.237 28.2451 105.405 28.024 105.719 28.024C105.814 28.024 105.935 28.0495 106.033 28.0722L106.179 27.5846C106.078 27.5647 105.935 27.5647 105.84 27.5647ZM99.3693 27.8085C99.1283 27.6384 98.792 27.5647 98.4305 27.5647C97.8532 27.5647 97.4693 27.8567 97.4693 28.3188C97.4693 28.7073 97.758 28.9284 98.2624 28.9993L98.5034 29.0248C98.7668 29.073 98.9125 29.1467 98.9125 29.2686C98.9125 29.4387 98.7191 29.5606 98.3829 29.5606C98.0466 29.5606 97.7804 29.4387 97.6123 29.3168L97.3713 29.7052C97.6347 29.9008 97.9962 29.9972 98.3577 29.9972C99.0302 29.9972 99.4169 29.6797 99.4169 29.2431C99.4169 28.8292 99.103 28.6109 98.6239 28.5371L98.3829 28.5116C98.1671 28.4861 97.999 28.4379 97.999 28.2933C97.999 28.1232 98.1671 28.0268 98.4333 28.0268C98.7219 28.0268 99.0106 28.1487 99.1563 28.2225L99.3693 27.8085ZM112.789 27.5647C112.501 27.5647 112.307 27.7121 112.187 27.9049V27.6129H111.682V29.949H112.187V28.6335C112.187 28.2451 112.355 28.024 112.669 28.024C112.764 28.024 112.884 28.0495 112.983 28.0722L113.128 27.5902C113.03 27.5647 112.887 27.5647 112.789 27.5647ZM106.344 28.7838C106.344 29.4897 106.826 30 107.571 30C107.908 30 108.149 29.9263 108.39 29.7335L108.149 29.3196C107.955 29.467 107.765 29.5379 107.546 29.5379C107.137 29.5379 106.848 29.2459 106.848 28.7838C106.848 28.3444 107.137 28.0524 107.546 28.0297C107.762 28.0297 107.955 28.1034 108.149 28.248L108.39 27.8341C108.149 27.6384 107.908 27.5676 107.571 27.5676C106.826 27.5647 106.344 28.0779 106.344 28.7838ZM111.01 28.7838V27.6158H110.505V27.9078C110.337 27.6895 110.096 27.5676 109.782 27.5676C109.132 27.5676 108.628 28.0779 108.628 28.7838C108.628 29.4897 109.132 30 109.782 30C110.119 30 110.36 29.8781 110.505 29.6598V29.9518H111.01V28.7838ZM109.157 28.7838C109.157 28.3699 109.421 28.0297 109.855 28.0297C110.264 28.0297 110.553 28.3472 110.553 28.7838C110.553 29.1977 110.264 29.5379 109.855 29.5379C109.424 29.5124 109.157 29.1949 109.157 28.7838ZM103.121 27.5647C102.449 27.5647 101.967 28.0524 101.967 28.781C101.967 29.5124 102.449 29.9972 103.147 29.9972C103.483 29.9972 103.819 29.9008 104.085 29.6797L103.844 29.314C103.651 29.4614 103.41 29.5578 103.172 29.5578C102.858 29.5578 102.547 29.4103 102.474 28.9993H104.181C104.181 28.9255 104.181 28.8774 104.181 28.8036C104.203 28.0524 103.769 27.5647 103.121 27.5647ZM103.121 28.0042C103.435 28.0042 103.651 28.1998 103.699 28.5627H102.497C102.544 28.248 102.76 28.0042 103.121 28.0042ZM115.653 28.7838V26.6915H115.149V27.9078C114.981 27.6895 114.74 27.5676 114.426 27.5676C113.776 27.5676 113.271 28.0779 113.271 28.7838C113.271 29.4897 113.776 30 114.426 30C114.762 30 115.003 29.8781 115.149 29.6598V29.9518H115.653V28.7838ZM113.801 28.7838C113.801 28.3699 114.064 28.0297 114.499 28.0297C114.908 28.0297 115.196 28.3472 115.196 28.7838C115.196 29.1977 114.908 29.5379 114.499 29.5379C114.064 29.5124 113.801 29.1949 113.801 28.7838ZM96.9145 28.7838V27.6158H96.4101V27.9078C96.242 27.6895 96.001 27.5676 95.6871 27.5676C95.037 27.5676 94.5326 28.0779 94.5326 28.7838C94.5326 29.4897 95.037 30 95.6871 30C96.0234 30 96.2644 29.8781 96.4101 29.6598V29.9518H96.9145V28.7838ZM95.0398 28.7838C95.0398 28.3699 95.3032 28.0297 95.7376 28.0297C96.1467 28.0297 96.4353 28.3472 96.4353 28.7838C96.4353 29.1977 96.1467 29.5379 95.7376 29.5379C95.3032 29.5124 95.0398 29.1949 95.0398 28.7838Z" fill="black"/>
<path d="M106.776 9.87402H99.1992V23.6467H106.776V9.87402Z" fill="#FF5A00"/>
<path d="M99.7046 16.7603C99.7046 13.9621 101.005 11.4786 103 9.87397C101.532 8.70593 99.6793 8 97.6589 8C92.8727 8 89 11.918 89 16.7603C89 21.6026 92.8727 25.5206 97.6589 25.5206C99.6793 25.5206 101.532 24.8147 103 23.6467C101.002 22.0647 99.7046 19.5585 99.7046 16.7603Z" fill="#EB001B"/>
<path d="M117 16.7603C117 21.6026 113.127 25.5206 108.341 25.5206C106.321 25.5206 104.468 24.8147 103 23.6467C105.02 22.0392 106.295 19.5585 106.295 16.7603C106.295 13.9621 104.995 11.4786 103 9.87397C104.466 8.70593 106.318 8 108.338 8C113.127 8 117 11.9436 117 16.7603Z" fill="#F79E1B"/>
</g>
<rect x="72.5" y="3.5" width="61" height="31" rx="4.5" stroke="#E8EEF3"/>
</g>
<g filter="url(#filter2_d_4668_8856)">
<g clip-path="url(#clip2_4668_8856)">
<rect x="141" y="4" width="60" height="30" rx="4" fill="white"/>
<rect x="141" y="4" width="60" height="30" rx="5" fill="white"/>
<path fill-rule="evenodd" clip-rule="evenodd" d="M155.467 13.5186C155.837 13.5164 156.935 13.4182 157.4 14.977C157.713 16.027 158.213 17.7469 158.897 20.1368H159.176C159.911 17.6172 160.415 15.8973 160.69 14.977C161.16 13.402 162.335 13.5187 162.805 13.5187L166.431 13.5187V24.7186H162.735V18.1183H162.488L160.427 24.7186H157.647L155.586 18.1134H155.338V24.7186H151.643V13.5187L155.467 13.5186ZM171.738 13.5187V20.1239H172.033L174.539 14.6925C175.026 13.6116 176.063 13.5187 176.063 13.5187H179.639V24.7187H175.866V18.1134H175.571L173.114 23.5449C172.628 24.6208 171.542 24.7187 171.542 24.7187H167.965V13.5187H171.738ZM192.681 18.841C192.154 20.3218 190.502 21.3824 188.672 21.3824H184.715V24.7187H181.127V18.841H192.681Z" fill="#0F754E"/>
<path fill-rule="evenodd" clip-rule="evenodd" d="M188.845 13.5182H180.939C181.128 16.0117 183.29 18.1463 185.529 18.1463H192.931C193.358 16.0739 191.887 13.5182 188.845 13.5182Z" fill="url(#paint0_linear_4668_8856)"/>
</g>
<rect x="140.5" y="3.5" width="61" height="31" rx="4.5" stroke="#E8EEF3"/>
</g>
<defs>
<filter id="filter0_d_4668_8856" x="0" y="0" width="70" height="40" filterUnits="userSpaceOnUse" color-interpolation-filters="sRGB">
<feFlood flood-opacity="0" result="BackgroundImageFix"/>
<feColorMatrix in="SourceAlpha" type="matrix" values="0 0 0 0 0 0 0 0 0 0 0 0 0 0 0 0 0 0 127 0" result="hardAlpha"/>
<feOffset dy="1"/>
<feGaussianBlur stdDeviation="2"/>
<feComposite in2="hardAlpha" operator="out"/>
<feColorMatrix type="matrix" values="0 0 0 0 0.027451 0 0 0 0 0.231373 0 0 0 0 0.631373 0 0 0 0.1 0"/>
<feBlend mode="normal" in2="BackgroundImageFix" result="effect1_dropShadow_4668_8856"/>
<feBlend mode="normal" in="SourceGraphic" in2="effect1_dropShadow_4668_8856" result="shape"/>
</filter>
<filter id="filter1_d_4668_8856" x="68" y="0" width="70" height="40" filterUnits="userSpaceOnUse" color-interpolation-filters="sRGB">
<feFlood flood-opacity="0" result="BackgroundImageFix"/>
<feColorMatrix in="SourceAlpha" type="matrix" values="0 0 0 0 0 0 0 0 0 0 0 0 0 0 0 0 0 0 127 0" result="hardAlpha"/>
<feOffset dy="1"/>
<feGaussianBlur stdDeviation="2"/>
<feComposite in2="hardAlpha" operator="out"/>
<feColorMatrix type="matrix" values="0 0 0 0 0.027451 0 0 0 0 0.231373 0 0 0 0 0.631373 0 0 0 0.1 0"/>
<feBlend mode="normal" in2="BackgroundImageFix" result="effect1_dropShadow_4668_8856"/>
<feBlend mode="normal" in="SourceGraphic" in2="effect1_dropShadow_4668_8856" result="shape"/>
</filter>
<filter id="filter2_d_4668_8856" x="136" y="0" width="70" height="40" filterUnits="userSpaceOnUse" color-interpolation-filters="sRGB">
<feFlood flood-opacity="0" result="BackgroundImageFix"/>
<feColorMatrix in="SourceAlpha" type="matrix" values="0 0 0 0 0 0 0 0 0 0 0 0 0 0 0 0 0 0 127 0" result="hardAlpha"/>
<feOffset dy="1"/>
<feGaussianBlur stdDeviation="2"/>
<feComposite in2="hardAlpha" operator="out"/>
<feColorMatrix type="matrix" values="0 0 0 0 0.027451 0 0 0 0 0.231373 0 0 0 0 0.631373 0 0 0 0.1 0"/>
<feBlend mode="normal" in2="BackgroundImageFix" result="effect1_dropShadow_4668_8856"/>
<feBlend mode="normal" in="SourceGraphic" in2="effect1_dropShadow_4668_8856" result="shape"/>
</filter>
<linearGradient id="paint0_linear_4668_8856" x1="193.003" y1="16.4295" x2="180.939" y2="16.4295" gradientUnits="userSpaceOnUse">
<stop stop-color="#1F5CD7"/>
<stop offset="1" stop-color="#02AEFF"/>
</linearGradient>
<clipPath id="clip0_4668_8856">
<rect x="5" y="4" width="60" height="30" rx="4" fill="white"/>
</clipPath>
<clipPath id="clip1_4668_8856">
<rect x="73" y="4" width="60" height="30" rx="4" fill="white"/>
</clipPath>
<clipPath id="clip2_4668_8856">
<rect x="141" y="4" width="60" height="30" rx="4" fill="white"/>
</clipPath>
</defs>
</svg>
