<svg width="180" height="60" viewBox="0 0 180 60" fill="none" xmlns="http://www.w3.org/2000/svg">
<g clip-path="url(#clip0_4668_8904)">
<path d="M55.8212 51.788H10.9023V54.3434H55.8212V51.788Z" fill="white"/>
<path d="M60.9818 55.8188H5.74414V58.3744H60.9818V55.8188Z" fill="white"/>
<path d="M48.7493 50.3391V29.5522V26.9966V12.7699V11.5053V10.2144H34.5742V10.7677V12.7699V26.9966V29.5522V50.3391H37.1539V29.5522H46.1696V50.3391H48.7493ZM37.1273 26.9966V12.7699H46.143V26.9966H37.1273Z" fill="white"/>
<path d="M52.7924 50.339V8.73901V6.18347H50.2127H33.0856H30.5059V8.73901V50.339H33.0856V8.73901H50.2127V50.339H52.7924Z" fill="white"/>
<path d="M13.9375 47.7834V50.339H26.4637H29.0434V6.18347H26.4637H13.9375V8.73901H26.4637V26.9967H13.9375V29.5522H26.4637V47.7834H13.9375Z" fill="white"/>
<path d="M66.2481 5.97275C65.7694 4.86622 64.9715 3.91777 63.9875 3.23278C63.1099 2.65318 62.0726 2.25799 60.9556 2.17896H5.71792V2.20529C5.05304 2.25799 4.41477 2.41607 3.82967 2.67952C2.68609 3.15375 1.72868 3.91777 1.0638 4.91891C0.398925 5.92006 0 7.10562 0 8.39656C0 9.23962 0.186165 10.0827 0.505304 10.8204C0.984012 11.9269 1.78186 12.8754 2.76588 13.534C3.77649 14.1927 4.97326 14.5878 6.27642 14.5878C7.12745 14.5878 7.97849 14.4034 8.72315 14.1136C9.84012 13.6394 10.7975 12.849 11.4624 11.8742C12.1273 10.8731 12.5262 9.68753 12.5262 8.39656C12.5262 7.63253 12.3932 6.89485 12.1273 6.20986H9.20186C9.22847 6.26256 9.28168 6.31524 9.3082 6.36794C9.70718 6.94754 9.94654 7.63253 9.94654 8.39656C9.94654 8.89709 9.84012 9.37136 9.65397 9.81927C9.38801 10.4779 8.9093 11.0312 8.32423 11.4263C7.73913 11.8215 7.02107 12.0587 6.27642 12.0587C5.77111 12.0587 5.2924 11.9533 4.84029 11.7688C4.17541 11.5054 3.61691 11.0312 3.21799 10.4515C2.81906 9.87196 2.57971 9.16057 2.57971 8.4229C2.57971 7.92234 2.68609 7.44811 2.87226 7.00023C3.1648 6.34159 3.61691 5.78833 4.20201 5.39314C4.7871 4.99796 5.50516 4.76084 6.24982 4.76084H11.3029H55.4239H60.3972C60.4237 4.76084 60.4503 4.76084 60.4769 4.76084C60.9823 4.76084 61.461 4.86622 61.9131 5.05064C62.5779 5.34045 63.1365 5.78833 63.5354 6.36794C63.9343 6.94754 64.1737 7.65888 64.1737 8.39656C64.1737 8.89709 64.0673 9.37136 63.8811 9.81927C63.5886 10.4779 63.1365 11.0312 62.5513 11.4263C61.9663 11.8215 61.2482 12.0587 60.5035 12.0587C59.9982 12.0587 59.5195 11.9533 59.0674 11.7688C58.4025 11.5054 57.844 11.0312 57.4451 10.4515C57.0462 9.87196 56.8069 9.16057 56.8069 8.4229C56.8069 7.92234 56.9132 7.44811 57.0994 7.00023C57.2058 6.73677 57.3653 6.47332 57.5515 6.23621H54.6527C54.3867 6.9212 54.2538 7.65888 54.2538 8.4229C54.2538 9.26596 54.4399 10.109 54.759 10.8467C55.2377 11.9533 56.0356 12.9017 57.0196 13.5603C58.0303 14.219 59.227 14.6141 60.5301 14.6141C61.3811 14.6141 62.2322 14.4298 62.9769 14.14C64.0939 13.6657 65.0513 12.8754 65.7428 11.9006C66.4076 10.8994 66.8065 9.71388 66.8065 8.4229C66.7534 7.52715 66.5672 6.71043 66.2481 5.97275Z" fill="white"/>
<path d="M79.4042 54.7087C79.7408 54.7087 80.0443 54.7874 80.3149 54.9449C80.5874 55.1003 80.8001 55.316 80.9528 55.5921C81.1077 55.8682 81.1852 56.1769 81.1852 56.5185C81.1852 57.0338 81.0179 57.4612 80.6835 57.8006C80.3489 58.14 79.9267 58.3098 79.4166 58.3098C79.0677 58.3098 78.7517 58.232 78.4688 58.0767C78.186 57.9213 77.9641 57.7066 77.8029 57.4325C77.644 57.1585 77.5645 56.8518 77.5645 56.5123C77.5645 55.9908 77.738 55.5604 78.0848 55.221C78.4317 54.8794 78.8715 54.7087 79.4042 54.7087ZM79.3671 55.1351C78.9872 55.1351 78.6712 55.267 78.4193 55.5307C78.1674 55.7925 78.0415 56.1218 78.0415 56.5185C78.0415 56.9111 78.1705 57.2362 78.4286 57.4939C78.6867 57.7515 79.0119 57.8804 79.4042 57.8804C79.7863 57.8804 80.0991 57.7536 80.3427 57.5C80.5885 57.2444 80.7113 56.9193 80.7113 56.5246C80.7113 56.1197 80.5854 55.7874 80.3335 55.5277C80.0816 55.266 79.7594 55.1351 79.3671 55.1351Z" fill="white"/>
<path d="M84.7773 54.7915C84.7773 54.7915 84.7773 55.7965 84.7773 57.8067C84.7773 57.8067 84.9652 57.8067 85.341 57.8067C85.341 57.8067 85.341 58.2105 85.341 59.0183C85.341 59.0183 85.2337 59.0183 85.019 59.0183C85.019 59.0183 84.9622 58.7545 84.8486 58.227C84.8486 58.227 83.8503 58.227 81.8535 58.227C81.8535 58.227 81.8535 57.0818 81.8535 54.7915C81.8535 54.7915 82.0105 54.7915 82.3243 54.7915C82.3243 54.7915 82.3243 55.7965 82.3243 57.8067C82.3243 57.8067 82.9861 57.8067 84.3097 57.8067C84.3097 57.8067 84.3097 56.8017 84.3097 54.7915C84.3097 54.7915 84.4655 54.7915 84.7773 54.7915Z" fill="white"/>
<path d="M89.1691 56.6627C89.1691 56.6627 88.1233 56.6627 86.0314 56.6627C86.0499 57.002 86.1903 57.2904 86.4526 57.5276C86.7147 57.7627 87.0245 57.8804 87.3817 57.8804C87.646 57.8804 87.8897 57.8087 88.1128 57.6656C88.3358 57.5205 88.4956 57.3303 88.5931 57.0951H89.0821C88.9539 57.4571 88.7353 57.7505 88.4254 57.9754C88.1154 58.1983 87.772 58.3098 87.3941 58.3098C87.1422 58.3098 86.9026 58.2627 86.6756 58.1687C86.4484 58.0747 86.2533 57.9468 86.0902 57.7853C85.927 57.6237 85.798 57.4305 85.703 57.2055C85.6081 56.9806 85.5605 56.7434 85.5605 56.494C85.5605 56.1667 85.64 55.8661 85.799 55.5921C85.958 55.3181 86.1748 55.1024 86.4495 54.9449C86.7241 54.7874 87.0265 54.7087 87.3569 54.7087C87.6997 54.7087 88.0144 54.7926 88.3016 54.9602C88.5904 55.128 88.8108 55.356 88.961 55.6442C89.0374 55.7894 89.0918 55.9387 89.1225 56.0921C89.1533 56.2434 89.1691 56.4336 89.1691 56.6627ZM86.0437 56.2424H88.7011C88.6229 55.9009 88.4631 55.631 88.2208 55.4327C87.9819 55.2342 87.6935 55.1351 87.3569 55.1351C87.0286 55.1351 86.7437 55.2373 86.5021 55.4418C86.2605 55.6442 86.1077 55.9111 86.0437 56.2424Z" fill="white"/>
<path d="M92.8399 58.227C92.8399 58.227 92.6828 58.227 92.3693 58.227C92.3693 58.227 92.3693 57.7137 92.3693 56.6872C92.3693 56.6872 91.6765 56.6872 90.2909 56.6872C90.2909 56.6872 90.2909 57.2004 90.2909 58.227C90.2909 58.227 90.1338 58.227 89.8203 58.227C89.8203 58.227 89.8203 57.0818 89.8203 54.7915C89.8203 54.7915 89.9766 54.7915 90.2909 54.7915C90.2909 54.7915 90.2909 55.2833 90.2909 56.2669C90.2909 56.2669 90.9837 56.2669 92.3693 56.2669C92.3693 56.2669 92.3693 55.7752 92.3693 54.7915C92.3693 54.7915 92.5256 54.7915 92.8399 54.7915C92.8399 54.7915 92.8399 55.9366 92.8399 58.227Z" fill="white"/>
<path d="M95.3415 54.7087C95.6778 54.7087 95.9816 54.7874 96.252 54.9449C96.5242 55.1003 96.7376 55.316 96.8903 55.5921C97.0449 55.8682 97.1221 56.1769 97.1221 56.5185C97.1221 57.0338 96.9553 57.4612 96.6208 57.8006C96.2862 58.14 95.8639 58.3098 95.3538 58.3098C95.0052 58.3098 94.6891 58.232 94.4063 58.0767C94.1227 57.9213 93.9015 57.7066 93.7399 57.4325C93.581 57.1585 93.502 56.8518 93.502 56.5123C93.502 55.9908 93.6749 55.5604 94.0218 55.221C94.3686 54.8794 94.8085 54.7087 95.3415 54.7087ZM95.3046 55.1351C94.9244 55.1351 94.6083 55.267 94.3563 55.5307C94.1043 55.7925 93.9787 56.1218 93.9787 56.5185C93.9787 56.9111 94.1078 57.2362 94.366 57.4939C94.6241 57.7515 94.949 57.8804 95.3415 57.8804C95.7234 57.8804 96.036 57.7536 96.2801 57.5C96.526 57.2444 96.6489 56.9193 96.6489 56.5246C96.6489 56.1197 96.5224 55.7874 96.2704 55.5277C96.0184 55.266 95.6962 55.1351 95.3046 55.1351Z" fill="white"/>
<path d="M100.31 54.7915C100.31 54.7915 100.31 55.9366 100.31 58.227C100.31 58.227 100.154 58.227 99.8421 58.227C99.8421 58.227 99.8421 57.7709 99.8421 56.8589C99.4918 56.8998 99.1265 56.9203 98.7489 56.9203C98.6357 56.9203 98.5145 56.9029 98.3863 56.8681C98.259 56.8313 98.1554 56.7843 98.0772 56.727C97.8103 56.545 97.6777 56.2475 97.6777 55.8344V54.7915C97.6777 54.7915 97.834 54.7915 98.1484 54.7915C98.1484 54.7915 98.1484 55.1392 98.1484 55.8344C98.1484 55.9714 98.1615 56.0808 98.1888 56.1626C98.2177 56.2445 98.2704 56.3119 98.3468 56.3651C98.4232 56.4162 98.5207 56.4519 98.641 56.4725C98.7621 56.4908 98.9237 56.5 99.1239 56.5C99.3074 56.5 99.5471 56.4806 99.8421 56.4418V54.7915H100.31Z" fill="white"/>
<path d="M104.133 58.227C104.133 58.227 103.976 58.227 103.662 58.227C103.662 58.227 103.662 57.7137 103.662 56.6872C103.662 56.6872 102.969 56.6872 101.584 56.6872C101.584 56.6872 101.584 57.2004 101.584 58.227C101.584 58.227 101.427 58.227 101.113 58.227C101.113 58.227 101.113 57.0818 101.113 54.7915C101.113 54.7915 101.27 54.7915 101.584 54.7915C101.584 54.7915 101.584 55.2833 101.584 56.2669C101.584 56.2669 102.277 56.2669 103.662 56.2669C103.662 56.2669 103.662 55.7752 103.662 54.7915C103.662 54.7915 103.819 54.7915 104.133 54.7915C104.133 54.7915 104.133 55.9366 104.133 58.227Z" fill="white"/>
<path d="M106.634 54.7087C106.971 54.7087 107.275 54.7874 107.545 54.9449C107.817 55.1003 108.031 55.316 108.183 55.5921C108.338 55.8682 108.415 56.1769 108.415 56.5185C108.415 57.0338 108.248 57.4612 107.914 57.8006C107.579 58.14 107.157 58.3098 106.647 58.3098C106.298 58.3098 105.982 58.232 105.699 58.0767C105.417 57.9213 105.194 57.7066 105.033 57.4325C104.874 57.1585 104.795 56.8518 104.795 56.5123C104.795 55.9908 104.968 55.5604 105.315 55.221C105.662 54.8794 106.101 54.7087 106.634 54.7087ZM106.598 55.1351C106.217 55.1351 105.901 55.267 105.649 55.5307C105.397 55.7925 105.272 56.1218 105.272 56.5185C105.272 56.9111 105.401 57.2362 105.659 57.4939C105.917 57.7515 106.242 57.8804 106.634 57.8804C107.016 57.8804 107.329 57.7536 107.573 57.5C107.819 57.2444 107.942 56.9193 107.942 56.5246C107.942 56.1197 107.815 55.7874 107.563 55.5277C107.311 55.266 106.989 55.1351 106.598 55.1351Z" fill="white"/>
<path d="M108.879 56.368C108.879 56.368 109.452 56.368 110.598 56.368C110.598 56.368 110.598 56.4999 110.598 56.7638C110.598 56.7638 110.026 56.7638 108.879 56.7638C108.879 56.7638 108.879 56.6319 108.879 56.368Z" fill="white"/>
<path d="M111.578 57.2546C111.708 57.4489 111.873 57.6022 112.073 57.7147C112.276 57.8252 112.497 57.8804 112.74 57.8804C113.095 57.8804 113.402 57.7679 113.663 57.5429C113.923 57.318 114.075 57.0368 114.121 56.6994H112.055V56.2792C112.055 56.2792 112.742 56.2792 114.115 56.2792C114.061 55.948 113.907 55.6749 113.653 55.4602C113.399 55.2434 113.101 55.1351 112.758 55.1351C112.246 55.1351 111.853 55.3549 111.578 55.7946H111.039C111.19 55.4551 111.415 55.1893 111.714 54.9971C112.015 54.8048 112.361 54.7087 112.752 54.7087C113.093 54.7087 113.405 54.7885 113.691 54.948C113.975 55.1054 114.199 55.3212 114.362 55.5952C114.528 55.8692 114.61 56.1708 114.61 56.5C114.61 56.8354 114.528 57.1421 114.362 57.4202C114.197 57.6963 113.97 57.9141 113.681 58.0736C113.392 58.2311 113.072 58.3098 112.721 58.3098C112.337 58.3098 112.002 58.2157 111.718 58.0276C111.434 57.8394 111.209 57.5818 111.039 57.2546H111.578Z" fill="white"/>
<path d="M115.273 54.7915C115.273 54.7915 115.431 54.7915 115.744 54.7915C115.744 54.7915 115.744 55.3018 115.744 56.3221C115.744 56.3221 116.273 55.8119 117.33 54.7915C117.33 54.7915 117.533 54.7915 117.937 54.7915C117.937 54.7915 117.36 55.3457 116.206 56.454C116.206 56.454 116.783 57.045 117.937 58.227C117.937 58.227 117.733 58.227 117.324 58.227C117.324 58.227 116.798 57.6871 115.744 56.6074C115.744 56.6074 115.744 57.1472 115.744 58.227C115.744 58.227 115.587 58.227 115.273 58.227C115.273 58.227 115.273 57.0818 115.273 54.7915Z" fill="white"/>
<path d="M121.176 57.2147C121.176 57.2147 121.354 57.2147 121.709 57.2147C121.609 57.4008 121.519 57.547 121.436 57.6533C121.354 57.7577 121.255 57.8527 121.139 57.9387C120.821 58.186 120.444 58.3098 120.009 58.3098C119.657 58.3098 119.337 58.2311 119.048 58.0736C118.759 57.9141 118.532 57.6963 118.367 57.4202C118.202 57.1421 118.119 56.8354 118.119 56.5C118.119 56.1708 118.201 55.8692 118.363 55.5952C118.529 55.3212 118.754 55.1054 119.038 54.948C119.324 54.7885 119.636 54.7087 119.977 54.7087C120.37 54.7087 120.72 54.81 121.027 55.0124C121.337 55.2148 121.562 55.4888 121.702 55.8344H121.176C121.042 55.6095 120.871 55.4367 120.665 55.316C120.458 55.1954 120.227 55.1351 119.971 55.1351C119.585 55.1351 119.259 55.268 118.993 55.5339C118.729 55.7997 118.596 56.1259 118.596 56.5123C118.596 56.8947 118.73 57.2188 118.999 57.4847C119.269 57.7485 119.6 57.8804 119.989 57.8804C120.238 57.8804 120.451 57.8293 120.631 57.727C120.812 57.6247 120.994 57.454 121.176 57.2147Z" fill="white"/>
<path d="M125.348 58.227C125.348 58.227 125.191 58.227 124.878 58.227C124.878 58.227 124.878 57.2219 124.878 55.2118C124.878 55.2118 124.194 55.2118 122.83 55.2118C122.83 55.2118 122.83 56.2168 122.83 58.227C122.83 58.227 122.673 58.227 122.359 58.227C122.359 58.227 122.359 57.0818 122.359 54.7915C122.359 54.7915 123.356 54.7915 125.348 54.7915C125.348 54.7915 125.348 55.9366 125.348 58.227Z" fill="white"/>
<path d="M129.62 56.6627C129.62 56.6627 128.574 56.6627 126.482 56.6627C126.501 57.002 126.641 57.2904 126.904 57.5276C127.165 57.7627 127.475 57.8804 127.833 57.8804C128.097 57.8804 128.34 57.8087 128.563 57.6656C128.786 57.5205 128.947 57.3303 129.044 57.0951H129.533C129.405 57.4571 129.186 57.7505 128.877 57.9754C128.567 58.1983 128.223 58.3098 127.845 58.3098C127.593 58.3098 127.353 58.2627 127.127 58.1687C126.899 58.0747 126.704 57.9468 126.541 57.7853C126.378 57.6237 126.249 57.4305 126.154 57.2055C126.059 56.9806 126.012 56.7434 126.012 56.494C126.012 56.1667 126.091 55.8661 126.25 55.5921C126.409 55.3181 126.625 55.1024 126.9 54.9449C127.175 54.7874 127.477 54.7087 127.808 54.7087C128.151 54.7087 128.466 54.7926 128.752 54.9602C129.042 55.128 129.261 55.356 129.412 55.6442C129.489 55.7894 129.542 55.9387 129.573 56.0921C129.605 56.2434 129.62 56.4336 129.62 56.6627ZM126.495 56.2424H129.152C129.073 55.9009 128.914 55.631 128.672 55.4327C128.432 55.2342 128.145 55.1351 127.808 55.1351C127.48 55.1351 127.194 55.2373 126.953 55.4418C126.712 55.6442 126.559 55.9111 126.495 56.2424Z" fill="white"/>
<path d="M130.27 54.7915C130.27 54.7915 130.427 54.7915 130.74 54.7915C130.74 54.7915 130.74 54.9879 130.74 55.3805C130.885 55.1617 131.073 54.995 131.304 54.8805C131.537 54.766 131.803 54.7087 132.103 54.7087C132.444 54.7087 132.754 54.7874 133.032 54.9449C133.311 55.1024 133.53 55.3191 133.689 55.5952C133.85 55.8692 133.93 56.1749 133.93 56.5123C133.93 56.8456 133.85 57.1503 133.689 57.4264C133.528 57.7004 133.306 57.9161 133.023 58.0736C132.742 58.2311 132.431 58.3098 132.091 58.3098C131.803 58.3098 131.544 58.2526 131.314 58.138C131.084 58.0214 130.893 57.8538 130.74 57.635V59.4324H130.27V54.7915ZM132.066 55.1351C131.684 55.1351 131.362 55.268 131.099 55.5339C130.838 55.7997 130.706 56.1259 130.706 56.5123C130.706 56.8988 130.838 57.224 131.103 57.4877C131.367 57.7495 131.695 57.8804 132.084 57.8804C132.474 57.8804 132.8 57.7515 133.06 57.4939C133.323 57.2341 133.453 56.9111 133.453 56.5246C133.453 56.1197 133.323 55.7874 133.06 55.5277C132.8 55.266 132.468 55.1351 132.066 55.1351Z" fill="white"/>
<path d="M136.412 55.2118C136.412 55.2118 136.112 55.2118 135.51 55.2118C135.51 55.2118 135.51 56.2168 135.51 58.227C135.51 58.227 135.354 58.227 135.039 58.227C135.039 58.227 135.039 57.2219 135.039 55.2118C135.039 55.2118 134.737 55.2118 134.129 55.2118C134.129 55.2118 134.129 55.0717 134.129 54.7915C134.129 54.7915 134.89 54.7915 136.412 54.7915C136.412 54.7915 136.412 54.9316 136.412 55.2118Z" fill="white"/>
<path d="M139.906 58.227C139.906 58.227 139.749 58.227 139.436 58.227C139.436 58.227 139.436 57.7137 139.436 56.6872C139.436 56.6872 138.743 56.6872 137.357 56.6872C137.357 56.6872 137.357 57.2004 137.357 58.227C137.357 58.227 137.2 58.227 136.887 58.227C136.887 58.227 136.887 57.0818 136.887 54.7915C136.887 54.7915 137.043 54.7915 137.357 54.7915C137.357 54.7915 137.357 55.2833 137.357 56.2669C137.357 56.2669 138.05 56.2669 139.436 56.2669C139.436 56.2669 139.436 55.7752 139.436 54.7915C139.436 54.7915 139.592 54.7915 139.906 54.7915C139.906 54.7915 139.906 55.9366 139.906 58.227Z" fill="white"/>
<path d="M144.235 54.7915C144.235 54.7915 144.235 55.9367 144.235 58.227C144.235 58.227 144.078 58.227 143.764 58.227C143.764 58.227 143.764 58.0255 143.764 57.6227C143.581 57.868 143.385 58.044 143.179 58.1503C142.975 58.2567 142.726 58.3098 142.432 58.3098C142.079 58.3098 141.761 58.2331 141.475 58.0797C141.193 57.9243 140.971 57.7107 140.81 57.4387C140.648 57.1647 140.568 56.8579 140.568 56.5185C140.568 56.179 140.647 55.8713 140.806 55.5952C140.965 55.3191 141.185 55.1024 141.463 54.9449C141.742 54.7874 142.053 54.7087 142.396 54.7087C142.699 54.7087 142.959 54.764 143.176 54.8744C143.395 54.9827 143.591 55.1576 143.764 55.3989V54.7915H144.235ZM142.389 55.1351C142.018 55.1351 141.701 55.268 141.439 55.5339C141.176 55.7997 141.045 56.1218 141.045 56.5C141.045 56.8866 141.179 57.2137 141.447 57.4816C141.716 57.7474 142.043 57.8804 142.426 57.8804C142.804 57.8804 143.121 57.7485 143.377 57.4847C143.635 57.2188 143.764 56.8907 143.764 56.5C143.764 56.1094 143.634 55.7843 143.371 55.5247C143.109 55.2649 142.782 55.1351 142.389 55.1351Z" fill="white"/>
<path d="M146.967 56.4172C146.967 56.4172 146.967 56.0154 146.967 55.2118C146.967 55.2118 146.699 55.2118 146.162 55.2118C145.602 55.2118 145.322 55.4132 145.322 55.816C145.322 56.2168 145.602 56.4172 146.162 56.4172C146.162 56.4172 146.43 56.4172 146.967 56.4172ZM146.2 56.8374C146.2 56.8374 145.873 57.3006 145.22 58.227C145.22 58.227 145.043 58.227 144.688 58.227C144.688 58.227 145.022 57.7515 145.691 56.8006C145.429 56.7413 145.222 56.6238 145.072 56.4479C144.923 56.2699 144.849 56.0593 144.849 55.816C144.849 55.5195 144.957 55.2752 145.174 55.0829C145.393 54.8886 145.681 54.7915 146.041 54.7915H147.435V58.227C147.435 58.227 147.279 58.227 146.967 58.227C146.967 58.227 146.967 57.7638 146.967 56.8374C146.967 56.8374 146.711 56.8374 146.2 56.8374Z" fill="white"/>
<path d="M149.994 54.7915C149.994 54.7915 150.15 54.7915 150.465 54.7915C150.465 54.7915 150.465 55.3018 150.465 56.3221C150.465 56.3221 150.993 55.8119 152.051 54.7915C152.051 54.7915 152.252 54.7915 152.657 54.7915C152.657 54.7915 152.08 55.3457 150.926 56.454C150.926 56.454 151.503 57.045 152.657 58.227C152.657 58.227 152.453 58.227 152.044 58.227C152.044 58.227 151.518 57.6871 150.465 56.6074C150.465 56.6074 150.465 57.1472 150.465 58.227C150.465 58.227 150.308 58.227 149.994 58.227C149.994 58.227 149.994 57.0818 149.994 54.7915Z" fill="white"/>
<path d="M154.68 54.7087C155.017 54.7087 155.32 54.7874 155.591 54.9449C155.863 55.1003 156.075 55.316 156.228 55.5921C156.384 55.8682 156.461 56.1769 156.461 56.5185C156.461 57.0338 156.294 57.4612 155.96 57.8006C155.625 58.14 155.203 58.3098 154.693 58.3098C154.343 58.3098 154.028 58.232 153.744 58.0767C153.462 57.9213 153.239 57.7066 153.079 57.4325C152.92 57.1585 152.84 56.8518 152.84 56.5123C152.84 55.9908 153.014 55.5604 153.361 55.221C153.707 54.8794 154.147 54.7087 154.68 54.7087ZM154.642 55.1351C154.263 55.1351 153.947 55.267 153.695 55.5307C153.443 55.7925 153.317 56.1218 153.317 56.5185C153.317 56.9111 153.447 57.2362 153.705 57.4939C153.963 57.7515 154.288 57.8804 154.68 57.8804C155.062 57.8804 155.375 57.7536 155.619 57.5C155.864 57.2444 155.987 56.9193 155.987 56.5246C155.987 56.1197 155.861 55.7874 155.609 55.5277C155.357 55.266 155.035 55.1351 154.642 55.1351Z" fill="white"/>
<path d="M157.129 58.227C157.129 58.227 157.129 57.0818 157.129 54.7915C157.129 54.7915 157.372 54.7915 157.859 54.7915C157.859 54.7915 158.263 55.7209 159.071 57.5798C159.071 57.5798 159.474 56.6503 160.282 54.7915C160.282 54.7915 160.524 54.7915 161.01 54.7915C161.01 54.7915 161.01 55.9366 161.01 58.227C161.01 58.227 160.854 58.227 160.542 58.227C160.542 58.227 160.542 57.2515 160.542 55.3007C160.542 55.3007 160.119 56.2761 159.272 58.227C159.272 58.227 159.137 58.227 158.867 58.227C158.867 58.227 158.444 57.2515 157.6 55.3007C157.6 55.3007 157.6 56.2761 157.6 58.227C157.6 58.227 157.442 58.227 157.129 58.227Z" fill="white"/>
<path d="M164.801 58.227C164.801 58.227 164.645 58.227 164.331 58.227C164.331 58.227 164.331 57.2219 164.331 55.2118C164.331 55.2118 163.649 55.2118 162.284 55.2118C162.284 55.2118 162.284 56.2168 162.284 58.227C162.284 58.227 162.127 58.227 161.812 58.227C161.812 58.227 161.812 57.0818 161.812 54.7915C161.812 54.7915 162.809 54.7915 164.801 54.7915C164.801 54.7915 164.801 55.9366 164.801 58.227Z" fill="white"/>
<path d="M169.132 54.7915C169.132 54.7915 169.132 55.9367 169.132 58.227C169.132 58.227 168.975 58.227 168.662 58.227C168.662 58.227 168.662 58.0255 168.662 57.6227C168.477 57.868 168.283 58.044 168.076 58.1503C167.872 58.2567 167.623 58.3098 167.33 58.3098C166.977 58.3098 166.657 58.2331 166.373 58.0797C166.09 57.9243 165.868 57.7107 165.706 57.4387C165.546 57.1647 165.465 56.8579 165.465 56.5185C165.465 56.179 165.545 55.8713 165.704 55.5952C165.863 55.3191 166.081 55.1024 166.36 54.9449C166.639 54.7874 166.95 54.7087 167.292 54.7087C167.596 54.7087 167.856 54.764 168.073 54.8744C168.292 54.9827 168.488 55.1576 168.662 55.3989V54.7915H169.132ZM167.286 55.1351C166.914 55.1351 166.598 55.268 166.335 55.5339C166.073 55.7997 165.942 56.1218 165.942 56.5C165.942 56.8866 166.076 57.2137 166.345 57.4816C166.613 57.7474 166.939 57.8804 167.324 57.8804C167.701 57.8804 168.018 57.7485 168.275 57.4847C168.533 57.2188 168.662 56.8907 168.662 56.5C168.662 56.1094 168.53 55.7843 168.268 55.5247C168.006 55.2649 167.678 55.1351 167.286 55.1351Z" fill="white"/>
<path d="M172.948 58.227C172.948 58.227 172.791 58.227 172.477 58.227C172.477 58.227 172.477 57.7137 172.477 56.6872C172.477 56.6872 171.784 56.6872 170.399 56.6872C170.399 56.6872 170.399 57.2004 170.399 58.227C170.399 58.227 170.242 58.227 169.928 58.227C169.928 58.227 169.928 57.0818 169.928 54.7915C169.928 54.7915 170.085 54.7915 170.399 54.7915C170.399 54.7915 170.399 55.2833 170.399 56.2669C170.399 56.2669 171.091 56.2669 172.477 56.2669C172.477 56.2669 172.477 55.7752 172.477 54.7915C172.477 54.7915 172.634 54.7915 172.948 54.7915C172.948 54.7915 172.948 55.9366 172.948 58.227Z" fill="white"/>
<path d="M176.325 54.7915C176.325 54.7915 176.482 54.7915 176.793 54.7915C176.793 54.7915 176.793 55.9366 176.793 58.227C176.793 58.227 176.637 58.227 176.325 58.227C176.325 58.227 176.325 57.3016 176.325 55.451C176.325 55.451 175.621 56.3763 174.213 58.227C174.213 58.227 174.057 58.227 173.742 58.227C173.742 58.227 173.742 57.0818 173.742 54.7915C173.742 54.7915 173.899 54.7915 174.213 54.7915C174.213 54.7915 174.213 55.7168 174.213 57.5675C174.213 57.5675 174.917 56.6421 176.325 54.7915Z" fill="white"/>
<path d="M179.531 56.4172C179.531 56.4172 179.531 56.0154 179.531 55.2118C179.531 55.2118 179.263 55.2118 178.726 55.2118C178.167 55.2118 177.887 55.4132 177.887 55.816C177.887 56.2168 178.167 56.4172 178.726 56.4172C178.726 56.4172 178.995 56.4172 179.531 56.4172ZM178.763 56.8374C178.763 56.8374 178.437 57.3006 177.784 58.227C177.784 58.227 177.607 58.227 177.252 58.227C177.252 58.227 177.586 57.7515 178.256 56.8006C177.993 56.7413 177.787 56.6238 177.636 56.4479C177.487 56.2699 177.413 56.0593 177.413 55.816C177.413 55.5195 177.522 55.2752 177.738 55.0829C177.957 54.8886 178.246 54.7915 178.605 54.7915H179.999V58.227C179.999 58.227 179.843 58.227 179.531 58.227C179.531 58.227 179.531 57.7638 179.531 56.8374C179.531 56.8374 179.275 56.8374 178.763 56.8374Z" fill="white"/>
<path d="M94.2448 1.61816C90.8572 1.61816 87.6021 2.34178 84.6794 3.59167C82.6202 4.51263 80.6938 5.76252 78.9668 7.14397L79.2989 8.39386C80.6275 7.20975 82.0888 6.22301 83.683 5.4336C91.7871 1.42082 102.282 2.99962 109.389 10.0385C114.903 15.5642 117.161 23.0635 115.899 29.905H103.079C103.412 30.2997 103.743 30.6287 104.009 31.0233H115.7C114.837 34.6414 113.043 38.128 110.187 40.8908C102.216 48.7848 89.2627 48.8507 80.4281 41.2855C79.8967 41.8776 79.4317 42.4039 78.9668 42.996C83.0851 46.4167 88.3996 48.5217 94.2448 48.5217C107.33 48.5217 117.892 38.0621 117.892 25.1028C117.892 12.1435 107.33 1.61816 94.2448 1.61816Z" fill="white"/>
<path d="M128.117 47.8639V3.46012H142.598V47.8639H144.857V2.3418C138.546 2.3418 132.236 2.3418 125.926 2.3418V47.8639H128.117Z" fill="white"/>
<path d="M166.523 1.61816C165.926 2.34178 165.394 3.0654 164.797 3.78902C160.81 18.4587 156.825 33.1284 152.906 47.8639H154.035C155.563 42.2066 157.091 36.6149 158.619 31.0234H172.17C173.698 36.6149 175.225 42.2066 176.686 47.8639H179.012C174.893 32.4706 170.708 17.0114 166.523 1.61816ZM158.885 29.905L165.394 5.95987L171.838 29.905H158.885Z" fill="white"/>
<path fill-rule="evenodd" clip-rule="evenodd" d="M84.3884 2.94153L84.3938 2.9392C87.4013 1.65304 90.7527 0.907465 94.2438 0.907465C107.728 0.907465 118.609 11.7536 118.609 25.1029C118.609 38.4547 107.725 49.2326 94.2438 49.2326C88.2204 49.2326 82.745 47.0627 78.5046 43.5406L77.9746 43.1004L78.3992 42.5596C78.8798 41.9478 79.3582 41.4067 79.8907 40.8134L80.3611 40.2894L80.8966 40.748C89.4716 48.0911 101.996 47.996 109.678 40.3883L109.681 40.3853L109.684 40.3825C112.202 37.9475 113.867 34.9209 114.773 31.7341H103.624L103.411 31.4177C103.256 31.1878 103.094 31.0055 102.893 30.7802C102.784 30.6578 102.663 30.5226 102.526 30.3601L101.546 29.1943H115.291C116.28 22.7481 114.076 15.7489 108.88 10.5396C101.982 3.71012 91.8195 2.19883 84.0029 6.06938C82.4665 6.83013 81.0588 7.78072 79.778 8.92222L78.9033 9.70187L78.1536 6.8801L78.5148 6.5911C80.2785 5.18033 82.2566 3.89498 84.383 2.94395L84.3884 2.94153ZM109.388 10.0385C114.902 15.5643 117.16 23.0636 115.898 29.9051H103.078C103.184 30.0309 103.29 30.1501 103.394 30.2668C103.498 30.3842 103.6 30.4991 103.698 30.6159C103.808 30.7473 103.912 30.8811 104.008 31.0234H115.699C115.642 31.2609 115.581 31.498 115.517 31.7341C114.595 35.0962 112.854 38.3094 110.186 40.8909C102.215 48.7849 89.2618 48.8507 80.4271 41.2856C79.8957 41.8777 79.4308 42.404 78.9658 42.996C83.0842 46.4167 88.3978 48.5218 94.2438 48.5218C107.329 48.5218 117.891 38.0622 117.891 25.1029C117.891 12.1435 107.329 1.61822 94.2438 1.61822C90.8563 1.61822 87.601 2.34184 84.6783 3.59172C82.6191 4.51269 80.6928 5.76257 78.9658 7.14403L79.2979 8.39391C79.4964 8.21693 79.698 8.04438 79.9025 7.87622C81.0662 6.91926 82.326 6.10507 83.6819 5.43366C91.7861 1.42087 102.281 2.99967 109.388 10.0385ZM128.835 48.5747H125.207V1.63107H145.575V48.5747H141.881V4.17092H128.835V48.5747ZM128.117 47.864H125.926V2.34184H144.856V47.864H142.598V3.46015H128.117V47.864ZM166.852 0.0968018L167.216 1.43344C171.401 16.8272 175.585 32.2873 179.704 47.682L179.943 48.5747H176.128L175.99 48.0401C174.576 42.5652 173.1 37.1512 171.619 31.7341H159.168C157.687 37.1508 156.208 42.5685 154.728 48.0476L154.586 48.5747H151.974L152.212 47.6829C156.13 32.947 160.116 18.2772 164.101 3.6094L164.102 3.6044L164.143 3.45707L164.24 3.339C164.532 2.98607 164.808 2.63204 165.091 2.26906L165.094 2.26603C165.374 1.90635 165.662 1.5378 165.967 1.16814L166.852 0.0968018ZM158.618 31.0234H172.169C173.697 36.615 175.224 42.2066 176.686 47.864H179.011C178.947 47.6271 178.883 47.3901 178.82 47.1532C174.839 32.2782 170.796 17.3437 166.754 2.46827C166.677 2.1849 166.599 1.90155 166.522 1.61822C166.332 1.84869 166.148 2.07916 165.967 2.30963C165.864 2.44097 165.762 2.57231 165.659 2.70365C165.376 3.06546 165.094 3.42726 164.795 3.78907C160.874 18.2229 156.952 32.6567 153.094 47.1532C153.032 47.3901 152.969 47.627 152.905 47.864H154.035C155.561 42.2089 157.089 36.6196 158.616 31.0304L158.618 31.0234ZM158.884 29.9051H171.836L165.393 5.95993L158.884 29.9051ZM165.389 8.707L159.82 29.1943H170.903L165.389 8.707Z" fill="white"/>
</g>
<defs>
<clipPath id="clip0_4668_8904">
<rect width="180" height="60" fill="white"/>
</clipPath>
</defs>
</svg>
